STARTFONT 2.1
COMMENT
COMMENT Converted from OpenType font "logic.ttf" by "otf2bdf 3.0".
COMMENT
FONT -FreeType-ProggyCleanTT-Medium-R-Normal--17-120-100-100-M-46-ISO10646-1
SIZE 12 100 100
FONTBOUNDINGBOX 7 13 0 -3
STARTPROPERTIES 19
FOUNDRY "FreeType"
FAMILY_NAME "ProggyCleanTT"
WEIGHT_NAME "Medium"
SLANT "R"
SETWIDTH_NAME "Normal"
ADD_STYLE_NAME ""
PIXEL_SIZE 17
POINT_SIZE 120
RESOLUTION_X 100
RESOLUTION_Y 100
SPACING "M"
AVERAGE_WIDTH 46
CHARSET_REGISTRY "ISO10646"
CHARSET_ENCODING "1"
FONT_ASCENT 10
FONT_DESCENT 3
COPYRIGHT "by Tristan Grimmer"
_OTF_FONTFILE "logic.ttf"
_OTF_PSNAME "ProggyCleanTT"
ENDPROPERTIES
CHARS 256
STARTCHAR 0000
ENCODING 0
SWIDTH 420 0
DWIDTH 7 0
BBX 0 0 0 0
BITMAP
ENDCHAR
STARTCHAR 0001
ENCODING 1
SWIDTH 420 0
DWIDTH 7 0
BBX 0 0 0 0
BITMAP
ENDCHAR
STARTCHAR 0002
ENCODING 2
SWIDTH 420 0
DWIDTH 7 0
BBX 0 0 0 0
BITMAP
ENDCHAR
STARTCHAR 0003
ENCODING 3
SWIDTH 420 0
DWIDTH 7 0
BBX 0 0 0 0
BITMAP
ENDCHAR
STARTCHAR 0004
ENCODING 4
SWIDTH 420 0
DWIDTH 7 0
BBX 0 0 0 0
BITMAP
ENDCHAR
STARTCHAR 0005
ENCODING 5
SWIDTH 420 0
DWIDTH 7 0
BBX 0 0 0 0
BITMAP
ENDCHAR
STARTCHAR 0006
ENCODING 6
SWIDTH 420 0
DWIDTH 7 0
BBX 0 0 0 0
BITMAP
ENDCHAR
STARTCHAR 0007
ENCODING 7
SWIDTH 420 0
DWIDTH 7 0
BBX 0 0 0 0
BITMAP
ENDCHAR
STARTCHAR 0008
ENCODING 8
SWIDTH 420 0
DWIDTH 7 0
BBX 0 0 0 0
BITMAP
ENDCHAR
STARTCHAR 0009
ENCODING 9
SWIDTH 420 0
DWIDTH 7 0
BBX 0 0 0 0
BITMAP
ENDCHAR
STARTCHAR 000A
ENCODING 10
SWIDTH 420 0
DWIDTH 7 0
BBX 0 0 0 0
BITMAP
ENDCHAR
STARTCHAR 000B
ENCODING 11
SWIDTH 420 0
DWIDTH 7 0
BBX 0 0 0 0
BITMAP
ENDCHAR
STARTCHAR 000C
ENCODING 12
SWIDTH 420 0
DWIDTH 7 0
BBX 0 0 0 0
BITMAP
ENDCHAR
STARTCHAR 000D
ENCODING 13
SWIDTH 420 0
DWIDTH 7 0
BBX 0 0 0 0
BITMAP
ENDCHAR
STARTCHAR 000E
ENCODING 14
SWIDTH 420 0
DWIDTH 7 0
BBX 0 0 0 0
BITMAP
ENDCHAR
STARTCHAR 000F
ENCODING 15
SWIDTH 420 0
DWIDTH 7 0
BBX 0 0 0 0
BITMAP
ENDCHAR
STARTCHAR 0010
ENCODING 16
SWIDTH 420 0
DWIDTH 7 0
BBX 0 0 0 0
BITMAP
ENDCHAR
STARTCHAR 0011
ENCODING 17
SWIDTH 420 0
DWIDTH 7 0
BBX 0 0 0 0
BITMAP
ENDCHAR
STARTCHAR 0012
ENCODING 18
SWIDTH 420 0
DWIDTH 7 0
BBX 0 0 0 0
BITMAP
ENDCHAR
STARTCHAR 0013
ENCODING 19
SWIDTH 420 0
DWIDTH 7 0
BBX 0 0 0 0
BITMAP
ENDCHAR
STARTCHAR 0014
ENCODING 20
SWIDTH 420 0
DWIDTH 7 0
BBX 0 0 0 0
BITMAP
ENDCHAR
STARTCHAR 0015
ENCODING 21
SWIDTH 420 0
DWIDTH 7 0
BBX 0 0 0 0
BITMAP
ENDCHAR
STARTCHAR 0016
ENCODING 22
SWIDTH 420 0
DWIDTH 7 0
BBX 0 0 0 0
BITMAP
ENDCHAR
STARTCHAR 0017
ENCODING 23
SWIDTH 420 0
DWIDTH 7 0
BBX 0 0 0 0
BITMAP
ENDCHAR
STARTCHAR 0018
ENCODING 24
SWIDTH 420 0
DWIDTH 7 0
BBX 0 0 0 0
BITMAP
ENDCHAR
STARTCHAR 0019
ENCODING 25
SWIDTH 420 0
DWIDTH 7 0
BBX 0 0 0 0
BITMAP
ENDCHAR
STARTCHAR 001A
ENCODING 26
SWIDTH 420 0
DWIDTH 7 0
BBX 0 0 0 0
BITMAP
ENDCHAR
STARTCHAR 001B
ENCODING 27
SWIDTH 420 0
DWIDTH 7 0
BBX 0 0 0 0
BITMAP
ENDCHAR
STARTCHAR 001C
ENCODING 28
SWIDTH 420 0
DWIDTH 7 0
BBX 0 0 0 0
BITMAP
ENDCHAR
STARTCHAR 001D
ENCODING 29
SWIDTH 420 0
DWIDTH 7 0
BBX 0 0 0 0
BITMAP
ENDCHAR
STARTCHAR 001E
ENCODING 30
SWIDTH 420 0
DWIDTH 7 0
BBX 0 0 0 0
BITMAP
ENDCHAR
STARTCHAR 001F
ENCODING 31
SWIDTH 420 0
DWIDTH 7 0
BBX 0 0 0 0
BITMAP
ENDCHAR
STARTCHAR 0020
ENCODING 32
SWIDTH 420 0
DWIDTH 7 0
BBX 0 0 0 0
BITMAP
ENDCHAR
STARTCHAR 0021
ENCODING 33
SWIDTH 420 0
DWIDTH 7 0
BBX 1 8 3 0
BITMAP
80
80
80
80
80
80
00
80
ENDCHAR
STARTCHAR 0022
ENCODING 34
SWIDTH 420 0
DWIDTH 7 0
BBX 3 3 2 6
BITMAP
A0
A0
A0
ENDCHAR
STARTCHAR 0023
ENCODING 35
SWIDTH 420 0
DWIDTH 7 0
BBX 7 8 0 0
BITMAP
14
14
7E
28
28
FC
50
50
ENDCHAR
STARTCHAR 0024
ENCODING 36
SWIDTH 420 0
DWIDTH 7 0
BBX 5 9 1 -1
BITMAP
20
78
A0
A0
70
28
28
F0
20
ENDCHAR
STARTCHAR 0025
ENCODING 37
SWIDTH 420 0
DWIDTH 7 0
BBX 7 8 0 0
BITMAP
44
A8
A8
50
14
2A
2A
44
ENDCHAR
STARTCHAR 0026
ENCODING 38
SWIDTH 420 0
DWIDTH 7 0
BBX 6 8 1 0
BITMAP
60
90
90
64
94
88
88
74
ENDCHAR
STARTCHAR 0027
ENCODING 39
SWIDTH 420 0
DWIDTH 7 0
BBX 1 3 3 6
BITMAP
80
80
80
ENDCHAR
STARTCHAR 0028
ENCODING 40
SWIDTH 420 0
DWIDTH 7 0
BBX 3 11 2 -2
BITMAP
20
40
40
80
80
80
80
80
40
40
20
ENDCHAR
STARTCHAR 0029
ENCODING 41
SWIDTH 420 0
DWIDTH 7 0
BBX 3 11 2 -2
BITMAP
80
40
40
20
20
20
20
20
40
40
80
ENDCHAR
STARTCHAR 002A
ENCODING 42
SWIDTH 420 0
DWIDTH 7 0
BBX 5 5 1 1
BITMAP
20
A8
70
A8
20
ENDCHAR
STARTCHAR 002B
ENCODING 43
SWIDTH 420 0
DWIDTH 7 0
BBX 5 5 1 1
BITMAP
20
20
F8
20
20
ENDCHAR
STARTCHAR 002C
ENCODING 44
SWIDTH 420 0
DWIDTH 7 0
BBX 2 4 1 -2
BITMAP
40
40
40
80
ENDCHAR
STARTCHAR 002D
ENCODING 45
SWIDTH 420 0
DWIDTH 7 0
BBX 5 1 1 3
BITMAP
F8
ENDCHAR
STARTCHAR 002E
ENCODING 46
SWIDTH 420 0
DWIDTH 7 0
BBX 1 2 2 0
BITMAP
80
80
ENDCHAR
STARTCHAR 002F
ENCODING 47
SWIDTH 420 0
DWIDTH 7 0
BBX 5 10 1 -1
BITMAP
08
08
10
10
20
20
40
40
80
80
ENDCHAR
STARTCHAR 0030
ENCODING 48
SWIDTH 420 0
DWIDTH 7 0
BBX 5 8 1 0
BITMAP
70
88
88
A8
A8
88
88
70
ENDCHAR
STARTCHAR 0031
ENCODING 49
SWIDTH 420 0
DWIDTH 7 0
BBX 5 8 1 0
BITMAP
20
60
A0
20
20
20
20
F8
ENDCHAR
STARTCHAR 0032
ENCODING 50
SWIDTH 420 0
DWIDTH 7 0
BBX 5 8 1 0
BITMAP
70
88
08
10
20
40
80
F8
ENDCHAR
STARTCHAR 0033
ENCODING 51
SWIDTH 420 0
DWIDTH 7 0
BBX 5 8 1 0
BITMAP
70
88
08
30
08
08
88
70
ENDCHAR
STARTCHAR 0034
ENCODING 52
SWIDTH 420 0
DWIDTH 7 0
BBX 6 8 1 0
BITMAP
08
18
28
48
88
FC
08
08
ENDCHAR
STARTCHAR 0035
ENCODING 53
SWIDTH 420 0
DWIDTH 7 0
BBX 5 8 1 0
BITMAP
F8
80
80
F0
08
08
88
70
ENDCHAR
STARTCHAR 0036
ENCODING 54
SWIDTH 420 0
DWIDTH 7 0
BBX 5 8 1 0
BITMAP
30
40
80
F0
88
88
88
70
ENDCHAR
STARTCHAR 0037
ENCODING 55
SWIDTH 420 0
DWIDTH 7 0
BBX 5 8 1 0
BITMAP
F8
08
10
10
20
20
40
40
ENDCHAR
STARTCHAR 0038
ENCODING 56
SWIDTH 420 0
DWIDTH 7 0
BBX 5 8 1 0
BITMAP
70
88
88
70
88
88
88
70
ENDCHAR
STARTCHAR 0039
ENCODING 57
SWIDTH 420 0
DWIDTH 7 0
BBX 5 8 1 0
BITMAP
70
88
88
88
78
08
10
60
ENDCHAR
STARTCHAR 003A
ENCODING 58
SWIDTH 420 0
DWIDTH 7 0
BBX 1 6 3 0
BITMAP
80
80
00
00
80
80
ENDCHAR
STARTCHAR 003B
ENCODING 59
SWIDTH 420 0
DWIDTH 7 0
BBX 2 8 1 -2
BITMAP
40
40
00
00
40
40
40
80
ENDCHAR
STARTCHAR 003C
ENCODING 60
SWIDTH 420 0
DWIDTH 7 0
BBX 6 5 0 1
BITMAP
0C
30
C0
30
0C
ENDCHAR
STARTCHAR 003D
ENCODING 61
SWIDTH 420 0
DWIDTH 7 0
BBX 6 3 1 2
BITMAP
FC
00
FC
ENDCHAR
STARTCHAR 003E
ENCODING 62
SWIDTH 420 0
DWIDTH 7 0
BBX 6 5 1 1
BITMAP
C0
30
0C
30
C0
ENDCHAR
STARTCHAR 003F
ENCODING 63
SWIDTH 420 0
DWIDTH 7 0
BBX 5 8 1 0
BITMAP
70
88
08
10
20
20
00
20
ENDCHAR
STARTCHAR 0040
ENCODING 64
SWIDTH 420 0
DWIDTH 7 0
BBX 7 8 0 0
BITMAP
38
44
9A
AA
AA
9C
40
3C
ENDCHAR
STARTCHAR 0041
ENCODING 65
SWIDTH 420 0
DWIDTH 7 0
BBX 6 8 1 0
BITMAP
30
30
48
48
78
84
84
84
ENDCHAR
STARTCHAR 0042
ENCODING 66
SWIDTH 420 0
DWIDTH 7 0
BBX 6 8 1 0
BITMAP
F0
88
88
F8
84
84
84
F8
ENDCHAR
STARTCHAR 0043
ENCODING 67
SWIDTH 420 0
DWIDTH 7 0
BBX 6 8 1 0
BITMAP
38
44
80
80
80
80
44
38
ENDCHAR
STARTCHAR 0044
ENCODING 68
SWIDTH 420 0
DWIDTH 7 0
BBX 6 8 1 0
BITMAP
F0
88
84
84
84
84
88
F0
ENDCHAR
STARTCHAR 0045
ENCODING 69
SWIDTH 420 0
DWIDTH 7 0
BBX 5 8 1 0
BITMAP
F8
80
80
F0
80
80
80
F8
ENDCHAR
STARTCHAR 0046
ENCODING 70
SWIDTH 420 0
DWIDTH 7 0
BBX 5 8 1 0
BITMAP
F8
80
80
F0
80
80
80
80
ENDCHAR
STARTCHAR 0047
ENCODING 71
SWIDTH 420 0
DWIDTH 7 0
BBX 6 8 1 0
BITMAP
38
44
80
80
9C
84
44
38
ENDCHAR
STARTCHAR 0048
ENCODING 72
SWIDTH 420 0
DWIDTH 7 0
BBX 6 8 1 0
BITMAP
84
84
84
FC
84
84
84
84
ENDCHAR
STARTCHAR 0049
ENCODING 73
SWIDTH 420 0
DWIDTH 7 0
BBX 3 8 2 0
BITMAP
E0
40
40
40
40
40
40
E0
ENDCHAR
STARTCHAR 004A
ENCODING 74
SWIDTH 420 0
DWIDTH 7 0
BBX 4 8 1 0
BITMAP
70
10
10
10
10
10
10
E0
ENDCHAR
STARTCHAR 004B
ENCODING 75
SWIDTH 420 0
DWIDTH 7 0
BBX 6 8 1 0
BITMAP
84
88
90
A0
E0
90
88
84
ENDCHAR
STARTCHAR 004C
ENCODING 76
SWIDTH 420 0
DWIDTH 7 0
BBX 5 8 1 0
BITMAP
80
80
80
80
80
80
80
F8
ENDCHAR
STARTCHAR 004D
ENCODING 77
SWIDTH 420 0
DWIDTH 7 0
BBX 7 8 0 0
BITMAP
C6
C6
AA
AA
92
92
82
82
ENDCHAR
STARTCHAR 004E
ENCODING 78
SWIDTH 420 0
DWIDTH 7 0
BBX 6 8 1 0
BITMAP
C4
C4
A4
A4
94
94
8C
8C
ENDCHAR
STARTCHAR 004F
ENCODING 79
SWIDTH 420 0
DWIDTH 7 0
BBX 6 8 1 0
BITMAP
30
48
84
84
84
84
48
30
ENDCHAR
STARTCHAR 0050
ENCODING 80
SWIDTH 420 0
DWIDTH 7 0
BBX 5 8 1 0
BITMAP
F0
88
88
88
F0
80
80
80
ENDCHAR
STARTCHAR 0051
ENCODING 81
SWIDTH 420 0
DWIDTH 7 0
BBX 6 9 1 -1
BITMAP
30
48
84
84
84
84
48
34
04
ENDCHAR
STARTCHAR 0052
ENCODING 82
SWIDTH 420 0
DWIDTH 7 0
BBX 6 8 1 0
BITMAP
F0
88
88
88
F0
90
88
84
ENDCHAR
STARTCHAR 0053
ENCODING 83
SWIDTH 420 0
DWIDTH 7 0
BBX 6 8 1 0
BITMAP
78
84
80
60
18
04
84
78
ENDCHAR
STARTCHAR 0054
ENCODING 84
SWIDTH 420 0
DWIDTH 7 0
BBX 7 8 0 0
BITMAP
FE
10
10
10
10
10
10
10
ENDCHAR
STARTCHAR 0055
ENCODING 85
SWIDTH 420 0
DWIDTH 7 0
BBX 6 8 1 0
BITMAP
84
84
84
84
84
84
84
78
ENDCHAR
STARTCHAR 0056
ENCODING 86
SWIDTH 420 0
DWIDTH 7 0
BBX 7 8 0 0
BITMAP
82
82
44
44
28
28
10
10
ENDCHAR
STARTCHAR 0057
ENCODING 87
SWIDTH 420 0
DWIDTH 7 0
BBX 7 8 0 0
BITMAP
82
92
92
AA
AA
6C
44
44
ENDCHAR
STARTCHAR 0058
ENCODING 88
SWIDTH 420 0
DWIDTH 7 0
BBX 6 8 1 0
BITMAP
84
84
48
30
30
48
84
84
ENDCHAR
STARTCHAR 0059
ENCODING 89
SWIDTH 420 0
DWIDTH 7 0
BBX 7 8 0 0
BITMAP
82
82
44
28
10
10
10
10
ENDCHAR
STARTCHAR 005A
ENCODING 90
SWIDTH 420 0
DWIDTH 7 0
BBX 6 8 1 0
BITMAP
FC
04
08
10
20
40
80
FC
ENDCHAR
STARTCHAR 005B
ENCODING 91
SWIDTH 420 0
DWIDTH 7 0
BBX 3 11 2 -2
BITMAP
E0
80
80
80
80
80
80
80
80
80
E0
ENDCHAR
STARTCHAR 005C
ENCODING 92
SWIDTH 420 0
DWIDTH 7 0
BBX 5 10 1 -1
BITMAP
80
80
40
40
20
20
10
10
08
08
ENDCHAR
STARTCHAR 005D
ENCODING 93
SWIDTH 420 0
DWIDTH 7 0
BBX 3 11 2 -2
BITMAP
E0
20
20
20
20
20
20
20
20
20
E0
ENDCHAR
STARTCHAR 005E
ENCODING 94
SWIDTH 420 0
DWIDTH 7 0
BBX 5 6 1 3
BITMAP
20
20
50
50
88
88
ENDCHAR
STARTCHAR 005F
ENCODING 95
SWIDTH 420 0
DWIDTH 7 0
BBX 7 1 0 -1
BITMAP
FE
ENDCHAR
STARTCHAR 0060
ENCODING 96
SWIDTH 420 0
DWIDTH 7 0
BBX 2 2 2 7
BITMAP
80
40
ENDCHAR
STARTCHAR 0061
ENCODING 97
SWIDTH 420 0
DWIDTH 7 0
BBX 5 6 1 0
BITMAP
70
08
78
88
88
78
ENDCHAR
STARTCHAR 0062
ENCODING 98
SWIDTH 420 0
DWIDTH 7 0
BBX 5 9 1 0
BITMAP
80
80
80
F0
88
88
88
88
F0
ENDCHAR
STARTCHAR 0063
ENCODING 99
SWIDTH 420 0
DWIDTH 7 0
BBX 5 6 1 0
BITMAP
70
88
80
80
88
70
ENDCHAR
STARTCHAR 0064
ENCODING 100
SWIDTH 420 0
DWIDTH 7 0
BBX 5 9 1 0
BITMAP
08
08
08
78
88
88
88
88
78
ENDCHAR
STARTCHAR 0065
ENCODING 101
SWIDTH 420 0
DWIDTH 7 0
BBX 5 6 1 0
BITMAP
70
88
F8
80
88
70
ENDCHAR
STARTCHAR 0066
ENCODING 102
SWIDTH 420 0
DWIDTH 7 0
BBX 5 9 1 0
BITMAP
38
40
40
F0
40
40
40
40
40
ENDCHAR
STARTCHAR 0067
ENCODING 103
SWIDTH 420 0
DWIDTH 7 0
BBX 5 9 1 -3
BITMAP
78
88
88
88
88
78
08
08
70
ENDCHAR
STARTCHAR 0068
ENCODING 104
SWIDTH 420 0
DWIDTH 7 0
BBX 5 9 1 0
BITMAP
80
80
80
F0
88
88
88
88
88
ENDCHAR
STARTCHAR 0069
ENCODING 105
SWIDTH 420 0
DWIDTH 7 0
BBX 2 9 2 0
BITMAP
40
00
00
C0
40
40
40
40
40
ENDCHAR
STARTCHAR 006A
ENCODING 106
SWIDTH 420 0
DWIDTH 7 0
BBX 4 11 1 -2
BITMAP
10
00
00
30
10
10
10
10
10
10
E0
ENDCHAR
STARTCHAR 006B
ENCODING 107
SWIDTH 420 0
DWIDTH 7 0
BBX 5 9 1 0
BITMAP
80
80
80
88
90
A0
E0
90
88
ENDCHAR
STARTCHAR 006C
ENCODING 108
SWIDTH 420 0
DWIDTH 7 0
BBX 2 9 2 0
BITMAP
C0
40
40
40
40
40
40
40
40
ENDCHAR
STARTCHAR 006D
ENCODING 109
SWIDTH 420 0
DWIDTH 7 0
BBX 7 6 0 0
BITMAP
EC
92
92
92
92
92
ENDCHAR
STARTCHAR 006E
ENCODING 110
SWIDTH 420 0
DWIDTH 7 0
BBX 5 6 1 0
BITMAP
F0
88
88
88
88
88
ENDCHAR
STARTCHAR 006F
ENCODING 111
SWIDTH 420 0
DWIDTH 7 0
BBX 5 6 1 0
BITMAP
70
88
88
88
88
70
ENDCHAR
STARTCHAR 0070
ENCODING 112
SWIDTH 420 0
DWIDTH 7 0
BBX 5 9 1 -3
BITMAP
F0
88
88
88
88
F0
80
80
80
ENDCHAR
STARTCHAR 0071
ENCODING 113
SWIDTH 420 0
DWIDTH 7 0
BBX 5 9 1 -3
BITMAP
78
88
88
88
88
78
08
08
08
ENDCHAR
STARTCHAR 0072
ENCODING 114
SWIDTH 420 0
DWIDTH 7 0
BBX 5 6 1 0
BITMAP
B0
C8
80
80
80
80
ENDCHAR
STARTCHAR 0073
ENCODING 115
SWIDTH 420 0
DWIDTH 7 0
BBX 5 6 1 0
BITMAP
78
80
60
10
08
F0
ENDCHAR
STARTCHAR 0074
ENCODING 116
SWIDTH 420 0
DWIDTH 7 0
BBX 4 8 2 0
BITMAP
80
80
F0
80
80
80
80
70
ENDCHAR
STARTCHAR 0075
ENCODING 117
SWIDTH 420 0
DWIDTH 7 0
BBX 5 6 1 0
BITMAP
88
88
88
88
88
78
ENDCHAR
STARTCHAR 0076
ENCODING 118
SWIDTH 420 0
DWIDTH 7 0
BBX 5 6 1 0
BITMAP
88
88
50
50
20
20
ENDCHAR
STARTCHAR 0077
ENCODING 119
SWIDTH 420 0
DWIDTH 7 0
BBX 7 6 0 0
BITMAP
82
92
92
AA
6C
44
ENDCHAR
STARTCHAR 0078
ENCODING 120
SWIDTH 420 0
DWIDTH 7 0
BBX 5 6 1 0
BITMAP
88
50
20
20
50
88
ENDCHAR
STARTCHAR 0079
ENCODING 121
SWIDTH 420 0
DWIDTH 7 0
BBX 5 9 1 -3
BITMAP
88
88
88
88
88
78
08
08
70
ENDCHAR
STARTCHAR 007A
ENCODING 122
SWIDTH 420 0
DWIDTH 7 0
BBX 5 6 1 0
BITMAP
F8
08
10
20
40
F8
ENDCHAR
STARTCHAR 007B
ENCODING 123
SWIDTH 420 0
DWIDTH 7 0
BBX 5 11 1 -2
BITMAP
18
20
20
20
20
C0
20
20
20
20
18
ENDCHAR
STARTCHAR 007C
ENCODING 124
SWIDTH 420 0
DWIDTH 7 0
BBX 1 11 3 -2
BITMAP
80
80
80
80
80
80
80
80
80
80
80
ENDCHAR
STARTCHAR 007D
ENCODING 125
SWIDTH 420 0
DWIDTH 7 0
BBX 5 11 1 -2
BITMAP
C0
20
20
20
20
18
20
20
20
20
C0
ENDCHAR
STARTCHAR 007E
ENCODING 126
SWIDTH 420 0
DWIDTH 7 0
BBX 7 2 0 3
BITMAP
72
9C
ENDCHAR
STARTCHAR 007F
ENCODING 127
SWIDTH 420 0
DWIDTH 7 0
BBX 0 0 0 0
BITMAP
ENDCHAR
STARTCHAR 0081
ENCODING 129
SWIDTH 420 0
DWIDTH 7 0
BBX 0 0 0 0
BITMAP
ENDCHAR
STARTCHAR 0082
ENCODING 130
SWIDTH 420 0
DWIDTH 7 0
BBX 2 4 2 -2
BITMAP
40
40
40
80
ENDCHAR
STARTCHAR 0083
ENCODING 131
SWIDTH 420 0
DWIDTH 7 0
BBX 5 11 1 -2
BITMAP
18
20
20
78
20
20
20
20
20
20
C0
ENDCHAR
STARTCHAR 0084
ENCODING 132
SWIDTH 420 0
DWIDTH 7 0
BBX 3 3 2 -1
BITMAP
A0
A0
A0
ENDCHAR
STARTCHAR 0085
ENCODING 133
SWIDTH 420 0
DWIDTH 7 0
BBX 5 1 1 0
BITMAP
A8
ENDCHAR
STARTCHAR 0086
ENCODING 134
SWIDTH 420 0
DWIDTH 7 0
BBX 5 9 1 0
BITMAP
20
20
F8
20
20
20
20
20
20
ENDCHAR
STARTCHAR 0087
ENCODING 135
SWIDTH 420 0
DWIDTH 7 0
BBX 5 9 1 0
BITMAP
20
20
F8
20
F8
20
20
20
20
ENDCHAR
STARTCHAR 0088
ENCODING 136
SWIDTH 420 0
DWIDTH 7 0
BBX 5 3 1 6
BITMAP
20
50
88
ENDCHAR
STARTCHAR 0089
ENCODING 137
SWIDTH 420 0
DWIDTH 7 0
BBX 6 8 1 0
BITMAP
10
90
A0
20
40
54
94
80
ENDCHAR
STARTCHAR 008A
ENCODING 138
SWIDTH 420 0
DWIDTH 7 0
BBX 6 10 1 0
BITMAP
50
20
78
84
80
60
18
04
84
78
ENDCHAR
STARTCHAR 008B
ENCODING 139
SWIDTH 420 0
DWIDTH 7 0
BBX 3 5 1 1
BITMAP
20
40
80
40
20
ENDCHAR
STARTCHAR 008C
ENCODING 140
SWIDTH 420 0
DWIDTH 7 0
BBX 7 8 0 0
BITMAP
6E
90
90
9C
90
90
90
6E
ENDCHAR
STARTCHAR 008D
ENCODING 141
SWIDTH 420 0
DWIDTH 7 0
BBX 0 0 0 0
BITMAP
ENDCHAR
STARTCHAR 008E
ENCODING 142
SWIDTH 420 0
DWIDTH 7 0
BBX 6 10 1 0
BITMAP
50
20
FC
04
08
10
20
40
80
FC
ENDCHAR
STARTCHAR 008F
ENCODING 143
SWIDTH 420 0
DWIDTH 7 0
BBX 0 0 0 0
BITMAP
ENDCHAR
STARTCHAR 0090
ENCODING 144
SWIDTH 420 0
DWIDTH 7 0
BBX 0 0 0 0
BITMAP
ENDCHAR
STARTCHAR 0091
ENCODING 145
SWIDTH 420 0
DWIDTH 7 0
BBX 2 3 3 6
BITMAP
80
80
40
ENDCHAR
STARTCHAR 0092
ENCODING 146
SWIDTH 420 0
DWIDTH 7 0
BBX 2 3 2 6
BITMAP
40
40
80
ENDCHAR
STARTCHAR 0093
ENCODING 147
SWIDTH 420 0
DWIDTH 7 0
BBX 4 3 2 6
BITMAP
A0
A0
50
ENDCHAR
STARTCHAR 0094
ENCODING 148
SWIDTH 420 0
DWIDTH 7 0
BBX 4 3 1 6
BITMAP
50
50
A0
ENDCHAR
STARTCHAR 0095
ENCODING 149
SWIDTH 420 0
DWIDTH 7 0
BBX 5 5 1 1
BITMAP
20
70
F8
70
20
ENDCHAR
STARTCHAR 0096
ENCODING 150
SWIDTH 420 0
DWIDTH 7 0
BBX 5 1 1 3
BITMAP
F8
ENDCHAR
STARTCHAR 0097
ENCODING 151
SWIDTH 420 0
DWIDTH 7 0
BBX 7 1 0 3
BITMAP
FE
ENDCHAR
STARTCHAR 0098
ENCODING 152
SWIDTH 420 0
DWIDTH 7 0
BBX 4 2 1 6
BITMAP
50
A0
ENDCHAR
STARTCHAR 0099
ENCODING 153
SWIDTH 420 0
DWIDTH 7 0
BBX 7 4 0 4
BITMAP
EE
4E
4A
4A
ENDCHAR
STARTCHAR 009A
ENCODING 154
SWIDTH 420 0
DWIDTH 7 0
BBX 5 9 1 0
BITMAP
50
20
00
78
80
60
10
08
F0
ENDCHAR
STARTCHAR 009B
ENCODING 155
SWIDTH 420 0
DWIDTH 7 0
BBX 3 5 1 1
BITMAP
80
40
20
40
80
ENDCHAR
STARTCHAR 009C
ENCODING 156
SWIDTH 420 0
DWIDTH 7 0
BBX 7 6 0 0
BITMAP
6C
92
9E
90
92
6C
ENDCHAR
STARTCHAR 009D
ENCODING 157
SWIDTH 420 0
DWIDTH 7 0
BBX 0 0 0 0
BITMAP
ENDCHAR
STARTCHAR 009E
ENCODING 158
SWIDTH 420 0
DWIDTH 7 0
BBX 5 9 1 0
BITMAP
50
20
00
F8
08
10
20
40
F8
ENDCHAR
STARTCHAR 009F
ENCODING 159
SWIDTH 420 0
DWIDTH 7 0
BBX 7 9 0 0
BITMAP
28
00
82
82
44
28
10
10
10
ENDCHAR
STARTCHAR 00A0
ENCODING 160
SWIDTH 420 0
DWIDTH 7 0
BBX 0 0 0 0
BITMAP
ENDCHAR
STARTCHAR 00A1
ENCODING 161
SWIDTH 420 0
DWIDTH 7 0
BBX 1 8 3 0
BITMAP
80
00
80
80
80
80
80
80
ENDCHAR
STARTCHAR 00A2
ENCODING 162
SWIDTH 420 0
DWIDTH 7 0
BBX 5 8 1 -1
BITMAP
20
70
A8
A0
A0
A8
70
20
ENDCHAR
STARTCHAR 00A3
ENCODING 163
SWIDTH 420 0
DWIDTH 7 0
BBX 5 8 1 0
BITMAP
30
40
40
F0
40
40
80
F8
ENDCHAR
STARTCHAR 00A4
ENCODING 164
SWIDTH 420 0
DWIDTH 7 0
BBX 7 7 0 0
BITMAP
82
7C
44
44
44
7C
82
ENDCHAR
STARTCHAR 00A5
ENCODING 165
SWIDTH 420 0
DWIDTH 7 0
BBX 7 8 0 0
BITMAP
82
82
44
28
10
7C
10
10
ENDCHAR
STARTCHAR 00A6
ENCODING 166
SWIDTH 420 0
DWIDTH 7 0
BBX 1 11 3 -2
BITMAP
80
80
80
80
80
00
80
80
80
80
80
ENDCHAR
STARTCHAR 00A7
ENCODING 167
SWIDTH 420 0
DWIDTH 7 0
BBX 5 9 1 0
BITMAP
70
88
80
60
50
30
08
88
70
ENDCHAR
STARTCHAR 00A8
ENCODING 168
SWIDTH 420 0
DWIDTH 7 0
BBX 3 1 2 8
BITMAP
A0
ENDCHAR
STARTCHAR 00A9
ENCODING 169
SWIDTH 420 0
DWIDTH 7 0
BBX 7 8 0 0
BITMAP
7C
82
9A
A2
A2
9A
82
7C
ENDCHAR
STARTCHAR 00AA
ENCODING 170
SWIDTH 420 0
DWIDTH 7 0
BBX 4 5 1 3
BITMAP
60
10
70
90
70
ENDCHAR
STARTCHAR 00AB
ENCODING 171
SWIDTH 420 0
DWIDTH 7 0
BBX 5 5 1 1
BITMAP
28
50
A0
50
28
ENDCHAR
STARTCHAR 00AC
ENCODING 172
SWIDTH 420 0
DWIDTH 7 0
BBX 4 4 1 0
BITMAP
F0
10
10
10
ENDCHAR
STARTCHAR 00AD
ENCODING 173
SWIDTH 420 0
DWIDTH 7 0
BBX 0 0 0 0
BITMAP
ENDCHAR
STARTCHAR 00AE
ENCODING 174
SWIDTH 420 0
DWIDTH 7 0
BBX 7 8 0 0
BITMAP
7C
82
B2
AA
B2
AA
82
7C
ENDCHAR
STARTCHAR 00AF
ENCODING 175
SWIDTH 420 0
DWIDTH 7 0
BBX 7 1 0 9
BITMAP
FE
ENDCHAR
STARTCHAR 00B0
ENCODING 176
SWIDTH 420 0
DWIDTH 7 0
BBX 4 4 1 5
BITMAP
60
90
90
60
ENDCHAR
STARTCHAR 00B1
ENCODING 177
SWIDTH 420 0
DWIDTH 7 0
BBX 5 7 1 0
BITMAP
20
20
F8
20
20
00
F8
ENDCHAR
STARTCHAR 00B2
ENCODING 178
SWIDTH 420 0
DWIDTH 7 0
BBX 4 5 1 4
BITMAP
E0
10
20
40
F0
ENDCHAR
STARTCHAR 00B3
ENCODING 179
SWIDTH 420 0
DWIDTH 7 0
BBX 4 5 1 4
BITMAP
E0
10
60
10
E0
ENDCHAR
STARTCHAR 00B4
ENCODING 180
SWIDTH 420 0
DWIDTH 7 0
BBX 2 2 3 7
BITMAP
40
80
ENDCHAR
STARTCHAR 00B5
ENCODING 181
SWIDTH 420 0
DWIDTH 7 0
BBX 7 8 0 -2
BITMAP
44
44
44
44
64
5A
40
80
ENDCHAR
STARTCHAR 00B6
ENCODING 182
SWIDTH 420 0
DWIDTH 7 0
BBX 6 9 1 -1
BITMAP
7C
E8
E8
68
28
28
28
28
28
ENDCHAR
STARTCHAR 00B7
ENCODING 183
SWIDTH 420 0
DWIDTH 7 0
BBX 3 3 2 2
BITMAP
E0
E0
E0
ENDCHAR
STARTCHAR 00B8
ENCODING 184
SWIDTH 420 0
DWIDTH 7 0
BBX 2 3 3 -3
BITMAP
C0
40
80
ENDCHAR
STARTCHAR 00B9
ENCODING 185
SWIDTH 420 0
DWIDTH 7 0
BBX 3 5 1 4
BITMAP
40
C0
40
40
E0
ENDCHAR
STARTCHAR 00BA
ENCODING 186
SWIDTH 420 0
DWIDTH 7 0
BBX 4 5 1 4
BITMAP
60
90
90
90
60
ENDCHAR
STARTCHAR 00BB
ENCODING 187
SWIDTH 420 0
DWIDTH 7 0
BBX 5 5 1 1
BITMAP
A0
50
28
50
A0
ENDCHAR
STARTCHAR 00BC
ENCODING 188
SWIDTH 420 0
DWIDTH 7 0
BBX 6 10 1 0
BITMAP
08
88
90
90
A0
20
48
58
BC
88
ENDCHAR
STARTCHAR 00BD
ENCODING 189
SWIDTH 420 0
DWIDTH 7 0
BBX 6 10 1 0
BITMAP
08
88
90
90
A0
38
44
48
90
9C
ENDCHAR
STARTCHAR 00BE
ENCODING 190
SWIDTH 420 0
DWIDTH 7 0
BBX 7 10 0 0
BITMAP
04
C4
28
68
30
D0
24
2C
5E
44
ENDCHAR
STARTCHAR 00BF
ENCODING 191
SWIDTH 420 0
DWIDTH 7 0
BBX 5 8 1 0
BITMAP
20
00
20
20
40
80
88
70
ENDCHAR
STARTCHAR 00C0
ENCODING 192
SWIDTH 420 0
DWIDTH 7 0
BBX 6 10 1 0
BITMAP
20
10
00
30
48
48
78
84
84
84
ENDCHAR
STARTCHAR 00C1
ENCODING 193
SWIDTH 420 0
DWIDTH 7 0
BBX 6 10 1 0
BITMAP
10
20
00
30
48
48
78
84
84
84
ENDCHAR
STARTCHAR 00C2
ENCODING 194
SWIDTH 420 0
DWIDTH 7 0
BBX 6 10 1 0
BITMAP
30
48
00
30
48
48
78
84
84
84
ENDCHAR
STARTCHAR 00C3
ENCODING 195
SWIDTH 420 0
DWIDTH 7 0
BBX 6 10 1 0
BITMAP
28
50
00
30
48
48
78
84
84
84
ENDCHAR
STARTCHAR 00C4
ENCODING 196
SWIDTH 420 0
DWIDTH 7 0
BBX 6 9 1 0
BITMAP
48
00
30
48
48
78
84
84
84
ENDCHAR
STARTCHAR 00C5
ENCODING 197
SWIDTH 420 0
DWIDTH 7 0
BBX 6 10 1 0
BITMAP
30
48
48
30
48
48
78
84
84
84
ENDCHAR
STARTCHAR 00C6
ENCODING 198
SWIDTH 420 0
DWIDTH 7 0
BBX 7 8 0 0
BITMAP
1E
28
28
4C
78
88
88
8E
ENDCHAR
STARTCHAR 00C7
ENCODING 199
SWIDTH 420 0
DWIDTH 7 0
BBX 6 11 1 -3
BITMAP
38
44
80
80
80
80
44
38
10
10
20
ENDCHAR
STARTCHAR 00C8
ENCODING 200
SWIDTH 420 0
DWIDTH 7 0
BBX 5 10 1 0
BITMAP
40
20
00
F8
80
80
F0
80
80
F8
ENDCHAR
STARTCHAR 00C9
ENCODING 201
SWIDTH 420 0
DWIDTH 7 0
BBX 5 10 1 0
BITMAP
10
20
00
F8
80
80
F0
80
80
F8
ENDCHAR
STARTCHAR 00CA
ENCODING 202
SWIDTH 420 0
DWIDTH 7 0
BBX 5 10 1 0
BITMAP
20
50
00
F8
80
80
F0
80
80
F8
ENDCHAR
STARTCHAR 00CB
ENCODING 203
SWIDTH 420 0
DWIDTH 7 0
BBX 5 9 1 0
BITMAP
50
00
F8
80
80
F0
80
80
F8
ENDCHAR
STARTCHAR 00CC
ENCODING 204
SWIDTH 420 0
DWIDTH 7 0
BBX 3 10 2 0
BITMAP
40
20
00
E0
40
40
40
40
40
E0
ENDCHAR
STARTCHAR 00CD
ENCODING 205
SWIDTH 420 0
DWIDTH 7 0
BBX 3 10 2 0
BITMAP
20
40
00
E0
40
40
40
40
40
E0
ENDCHAR
STARTCHAR 00CE
ENCODING 206
SWIDTH 420 0
DWIDTH 7 0
BBX 3 10 2 0
BITMAP
40
A0
00
E0
40
40
40
40
40
E0
ENDCHAR
STARTCHAR 00CF
ENCODING 207
SWIDTH 420 0
DWIDTH 7 0
BBX 3 9 2 0
BITMAP
A0
00
E0
40
40
40
40
40
E0
ENDCHAR
STARTCHAR 00D0
ENCODING 208
SWIDTH 420 0
DWIDTH 7 0
BBX 7 7 0 0
BITMAP
78
44
42
F2
42
44
78
ENDCHAR
STARTCHAR 00D1
ENCODING 209
SWIDTH 420 0
DWIDTH 7 0
BBX 6 10 1 0
BITMAP
28
50
00
C4
A4
A4
94
94
8C
8C
ENDCHAR
STARTCHAR 00D2
ENCODING 210
SWIDTH 420 0
DWIDTH 7 0
BBX 6 10 1 0
BITMAP
20
10
00
30
48
84
84
84
48
30
ENDCHAR
STARTCHAR 00D3
ENCODING 211
SWIDTH 420 0
DWIDTH 7 0
BBX 6 10 1 0
BITMAP
10
20
00
30
48
84
84
84
48
30
ENDCHAR
STARTCHAR 00D4
ENCODING 212
SWIDTH 420 0
DWIDTH 7 0
BBX 6 10 1 0
BITMAP
30
48
00
30
48
84
84
84
48
30
ENDCHAR
STARTCHAR 00D5
ENCODING 213
SWIDTH 420 0
DWIDTH 7 0
BBX 6 10 1 0
BITMAP
28
50
00
30
48
84
84
84
48
30
ENDCHAR
STARTCHAR 00D6
ENCODING 214
SWIDTH 420 0
DWIDTH 7 0
BBX 6 9 1 0
BITMAP
48
00
30
48
84
84
84
48
30
ENDCHAR
STARTCHAR 00D7
ENCODING 215
SWIDTH 420 0
DWIDTH 7 0
BBX 5 5 1 1
BITMAP
88
50
20
50
88
ENDCHAR
STARTCHAR 00D8
ENCODING 216
SWIDTH 420 0
DWIDTH 7 0
BBX 6 8 1 0
BITMAP
34
48
94
94
A4
A4
48
B0
ENDCHAR
STARTCHAR 00D9
ENCODING 217
SWIDTH 420 0
DWIDTH 7 0
BBX 6 10 1 0
BITMAP
20
10
00
84
84
84
84
84
84
78
ENDCHAR
STARTCHAR 00DA
ENCODING 218
SWIDTH 420 0
DWIDTH 7 0
BBX 6 10 1 0
BITMAP
10
20
00
84
84
84
84
84
84
78
ENDCHAR
STARTCHAR 00DB
ENCODING 219
SWIDTH 420 0
DWIDTH 7 0
BBX 6 10 1 0
BITMAP
30
48
00
84
84
84
84
84
84
78
ENDCHAR
STARTCHAR 00DC
ENCODING 220
SWIDTH 420 0
DWIDTH 7 0
BBX 6 9 1 0
BITMAP
48
00
84
84
84
84
84
84
78
ENDCHAR
STARTCHAR 00DD
ENCODING 221
SWIDTH 420 0
DWIDTH 7 0
BBX 7 10 0 0
BITMAP
08
10
00
82
82
44
28
10
10
10
ENDCHAR
STARTCHAR 00DE
ENCODING 222
SWIDTH 420 0
DWIDTH 7 0
BBX 5 8 1 0
BITMAP
80
80
F0
88
88
F0
80
80
ENDCHAR
STARTCHAR 00DF
ENCODING 223
SWIDTH 420 0
DWIDTH 7 0
BBX 7 10 0 -1
BITMAP
38
44
44
78
44
42
42
42
7C
80
ENDCHAR
STARTCHAR 00E0
ENCODING 224
SWIDTH 420 0
DWIDTH 7 0
BBX 5 9 1 0
BITMAP
20
10
00
70
08
78
88
88
78
ENDCHAR
STARTCHAR 00E1
ENCODING 225
SWIDTH 420 0
DWIDTH 7 0
BBX 5 9 1 0
BITMAP
10
20
00
70
08
78
88
88
78
ENDCHAR
STARTCHAR 00E2
ENCODING 226
SWIDTH 420 0
DWIDTH 7 0
BBX 5 9 1 0
BITMAP
20
50
00
70
08
78
88
88
78
ENDCHAR
STARTCHAR 00E3
ENCODING 227
SWIDTH 420 0
DWIDTH 7 0
BBX 5 9 1 0
BITMAP
28
50
00
70
08
78
88
88
78
ENDCHAR
STARTCHAR 00E4
ENCODING 228
SWIDTH 420 0
DWIDTH 7 0
BBX 5 8 1 0
BITMAP
50
00
70
08
78
88
88
78
ENDCHAR
STARTCHAR 00E5
ENCODING 229
SWIDTH 420 0
DWIDTH 7 0
BBX 5 10 1 0
BITMAP
20
50
20
00
70
08
78
88
88
78
ENDCHAR
STARTCHAR 00E6
ENCODING 230
SWIDTH 420 0
DWIDTH 7 0
BBX 7 6 0 0
BITMAP
6C
12
7E
90
92
7C
ENDCHAR
STARTCHAR 00E7
ENCODING 231
SWIDTH 420 0
DWIDTH 7 0
BBX 5 9 1 -3
BITMAP
70
88
80
80
88
70
20
20
40
ENDCHAR
STARTCHAR 00E8
ENCODING 232
SWIDTH 420 0
DWIDTH 7 0
BBX 5 9 1 0
BITMAP
40
20
00
70
88
F8
80
88
70
ENDCHAR
STARTCHAR 00E9
ENCODING 233
SWIDTH 420 0
DWIDTH 7 0
BBX 5 9 1 0
BITMAP
20
40
00
70
88
F8
80
88
70
ENDCHAR
STARTCHAR 00EA
ENCODING 234
SWIDTH 420 0
DWIDTH 7 0
BBX 5 9 1 0
BITMAP
20
50
00
70
88
F8
80
88
70
ENDCHAR
STARTCHAR 00EB
ENCODING 235
SWIDTH 420 0
DWIDTH 7 0
BBX 5 8 1 0
BITMAP
50
00
70
88
F8
80
88
70
ENDCHAR
STARTCHAR 00EC
ENCODING 236
SWIDTH 420 0
DWIDTH 7 0
BBX 2 9 2 0
BITMAP
80
40
00
C0
40
40
40
40
40
ENDCHAR
STARTCHAR 00ED
ENCODING 237
SWIDTH 420 0
DWIDTH 7 0
BBX 2 9 2 0
BITMAP
40
80
00
C0
40
40
40
40
40
ENDCHAR
STARTCHAR 00EE
ENCODING 238
SWIDTH 420 0
DWIDTH 7 0
BBX 3 9 2 0
BITMAP
40
A0
00
C0
40
40
40
40
40
ENDCHAR
STARTCHAR 00EF
ENCODING 239
SWIDTH 420 0
DWIDTH 7 0
BBX 3 9 2 0
BITMAP
A0
00
00
C0
40
40
40
40
40
ENDCHAR
STARTCHAR 00F0
ENCODING 240
SWIDTH 420 0
DWIDTH 7 0
BBX 5 9 1 0
BITMAP
68
10
28
08
78
88
88
88
70
ENDCHAR
STARTCHAR 00F1
ENCODING 241
SWIDTH 420 0
DWIDTH 7 0
BBX 5 9 1 0
BITMAP
50
A0
00
F0
88
88
88
88
88
ENDCHAR
STARTCHAR 00F2
ENCODING 242
SWIDTH 420 0
DWIDTH 7 0
BBX 5 9 1 0
BITMAP
40
20
00
70
88
88
88
88
70
ENDCHAR
STARTCHAR 00F3
ENCODING 243
SWIDTH 420 0
DWIDTH 7 0
BBX 5 9 1 0
BITMAP
10
20
00
70
88
88
88
88
70
ENDCHAR
STARTCHAR 00F4
ENCODING 244
SWIDTH 420 0
DWIDTH 7 0
BBX 5 9 1 0
BITMAP
20
50
00
70
88
88
88
88
70
ENDCHAR
STARTCHAR 00F5
ENCODING 245
SWIDTH 420 0
DWIDTH 7 0
BBX 5 9 1 0
BITMAP
28
50
00
70
88
88
88
88
70
ENDCHAR
STARTCHAR 00F6
ENCODING 246
SWIDTH 420 0
DWIDTH 7 0
BBX 5 8 1 0
BITMAP
50
00
70
88
88
88
88
70
ENDCHAR
STARTCHAR 00F7
ENCODING 247
SWIDTH 420 0
DWIDTH 7 0
BBX 5 5 1 1
BITMAP
20
00
F8
00
20
ENDCHAR
STARTCHAR 00F8
ENCODING 248
SWIDTH 420 0
DWIDTH 7 0
BBX 5 8 1 -1
BITMAP
08
70
98
A8
A8
C8
70
80
ENDCHAR
STARTCHAR 00F9
ENCODING 249
SWIDTH 420 0
DWIDTH 7 0
BBX 5 9 1 0
BITMAP
40
20
00
88
88
88
88
88
78
ENDCHAR
STARTCHAR 00FA
ENCODING 250
SWIDTH 420 0
DWIDTH 7 0
BBX 5 9 1 0
BITMAP
20
40
00
88
88
88
88
88
78
ENDCHAR
STARTCHAR 00FB
ENCODING 251
SWIDTH 420 0
DWIDTH 7 0
BBX 5 9 1 0
BITMAP
20
50
00
88
88
88
88
88
78
ENDCHAR
STARTCHAR 00FC
ENCODING 252
SWIDTH 420 0
DWIDTH 7 0
BBX 5 8 1 0
BITMAP
50
00
88
88
88
88
88
78
ENDCHAR
STARTCHAR 00FD
ENCODING 253
SWIDTH 420 0
DWIDTH 7 0
BBX 5 12 1 -3
BITMAP
10
20
00
88
88
88
88
88
78
08
08
70
ENDCHAR
STARTCHAR 00FE
ENCODING 254
SWIDTH 420 0
DWIDTH 7 0
BBX 5 10 1 -2
BITMAP
80
80
F0
88
88
88
88
F0
80
80
ENDCHAR
STARTCHAR 00FF
ENCODING 255
SWIDTH 420 0
DWIDTH 7 0
BBX 5 11 1 -3
BITMAP
50
00
88
88
88
88
88
78
08
08
70
ENDCHAR
STARTCHAR 20AC
ENCODING 8364
SWIDTH 420 0
DWIDTH 7 0
BBX 6 7 1 0
BITMAP
38
44
F0
40
F0
44
38
ENDCHAR
ENDFONT
